<svg width="24" height="27" viewBox="0 0 24 27" fill="none" xmlns="http://www.w3.org/2000/svg">
<path d="M19.3317 8.31754C19.3317 4.11274 15.9249 0.705933 11.7201 0.705933C7.51528 0.705933 4.10847 4.11274 4.10847 8.31754C4.10847 10.8588 5.35456 13.1116 7.26974 14.4928C7.25746 14.4989 7.24826 14.502 7.24212 14.505C5.87019 15.0851 4.63944 15.9169 3.58056 16.9788C2.52781 18.0297 1.68967 19.2754 1.11293 20.6465C0.545476 21.9892 0.239227 23.4277 0.210587 24.8851C0.209768 24.9178 0.215513 24.9504 0.227485 24.9809C0.239458 25.0114 0.257414 25.0392 0.280296 25.0627C0.303178 25.0861 0.330523 25.1048 0.36072 25.1175C0.390917 25.1302 0.423355 25.1367 0.456123 25.1367H2.29457C2.42655 25.1367 2.53704 25.0293 2.54011 24.8973C2.60149 22.5279 3.54987 20.3089 5.22872 18.627C6.96282 16.8867 9.26472 15.9291 11.7201 15.9291C15.9249 15.9291 19.3317 12.5223 19.3317 8.31754ZM11.7201 13.5966C8.80434 13.5966 6.44106 11.2333 6.44106 8.31754C6.44106 5.4018 8.80434 3.03852 11.7201 3.03852C14.6358 3.03852 16.9991 5.4018 16.9991 8.31754C16.9991 11.2333 14.6358 13.5966 11.7201 13.5966ZM14.9427 20.3795H23.0454C23.1805 20.3795 23.2909 20.269 23.2909 20.1339V18.4152C23.2909 18.2802 23.1805 18.1697 23.0454 18.1697H17.6283L19.0769 16.3251C19.1103 16.282 19.1287 16.2292 19.1291 16.1747C19.1291 16.0396 19.0186 15.9291 18.8836 15.9291H16.6553C16.505 15.9291 16.3638 15.9997 16.2686 16.1164L14.1662 18.7896C14.0312 18.9615 13.9575 19.1764 13.9575 19.3973C13.9606 19.9406 14.3995 20.3795 14.9427 20.3795ZM22.3088 22.3438H14.2061C14.0711 22.3438 13.9606 22.4543 13.9606 22.5893V24.3081C13.9606 24.4431 14.0711 24.5536 14.2061 24.5536H19.6233L18.1746 26.3982C18.1412 26.4412 18.1229 26.4941 18.1224 26.5486C18.1224 26.6836 18.2329 26.7941 18.368 26.7941H20.5962C20.7466 26.7941 20.8878 26.7235 20.9829 26.6069L23.0853 23.9336C23.2204 23.7617 23.294 23.5469 23.294 23.3259C23.2909 22.7827 22.8521 22.3438 22.3088 22.3438Z" fill="#FF6B72"/>
</svg>
