<svg width="24" height="22" viewBox="0 0 24 22" fill="none" xmlns="http://www.w3.org/2000/svg">
<path d="M23.3259 19.3973H2.20982V0.245536C2.20982 0.110491 2.09933 0 1.96429 0H0.245536C0.110491 0 0 0.110491 0 0.245536V21.3616C0 21.4967 0.110491 21.6071 0.245536 21.6071H23.3259C23.4609 21.6071 23.5714 21.4967 23.5714 21.3616V19.6429C23.5714 19.5078 23.4609 19.3973 23.3259 19.3973ZM4.91071 16.942H6.62946C6.76451 16.942 6.875 16.8315 6.875 16.6964V12.2768C6.875 12.1417 6.76451 12.0313 6.62946 12.0313H4.91071C4.77567 12.0313 4.66518 12.1417 4.66518 12.2768V16.6964C4.66518 16.8315 4.77567 16.942 4.91071 16.942ZM9.57589 16.942H11.2946C11.4297 16.942 11.5402 16.8315 11.5402 16.6964V6.875C11.5402 6.73996 11.4297 6.62947 11.2946 6.62947H9.57589C9.44085 6.62947 9.33036 6.73996 9.33036 6.875V16.6964C9.33036 16.8315 9.44085 16.942 9.57589 16.942ZM14.2411 16.942H15.9598C16.0949 16.942 16.2054 16.8315 16.2054 16.6964V9.26897C16.2054 9.13393 16.0949 9.02344 15.9598 9.02344H14.2411C14.106 9.02344 13.9955 9.13393 13.9955 9.26897V16.6964C13.9955 16.8315 14.106 16.942 14.2411 16.942ZM18.9063 16.942H20.625C20.76 16.942 20.8705 16.8315 20.8705 16.6964V4.41964C20.8705 4.2846 20.76 4.17411 20.625 4.17411H18.9063C18.7712 4.17411 18.6607 4.2846 18.6607 4.41964V16.6964C18.6607 16.8315 18.7712 16.942 18.9063 16.942Z" fill="#FFC542"/>
</svg>
